<svg width="21" height="20" viewBox="0 0 21 20" fill="none" xmlns="http://www.w3.org/2000/svg">
<path d="M6.33268 8.95841H4.66602C2.64935 8.95841 1.54102 7.85008 1.54102 5.83341V4.16675C1.54102 2.15008 2.64935 1.04175 4.66602 1.04175H6.33268C8.34935 1.04175 9.45768 2.15008 9.45768 4.16675V5.83341C9.45768 7.85008 8.34935 8.95841 6.33268 8.95841ZM4.66602 2.29175C3.34935 2.29175 2.79102 2.85008 2.79102 4.16675V5.83341C2.79102 7.15008 3.34935 7.70841 4.66602 7.70841H6.33268C7.64935 7.70841 8.20768 7.15008 8.20768 5.83341V4.16675C8.20768 2.85008 7.64935 2.29175 6.33268 2.29175H4.66602Z" fill="#26272B"/>
<path d="M16.3327 8.95841H14.666C12.6493 8.95841 11.541 7.85008 11.541 5.83341V4.16675C11.541 2.15008 12.6493 1.04175 14.666 1.04175H16.3327C18.3493 1.04175 19.4577 2.15008 19.4577 4.16675V5.83341C19.4577 7.85008 18.3493 8.95841 16.3327 8.95841ZM14.666 2.29175C13.3493 2.29175 12.791 2.85008 12.791 4.16675V5.83341C12.791 7.15008 13.3493 7.70841 14.666 7.70841H16.3327C17.6493 7.70841 18.2077 7.15008 18.2077 5.83341V4.16675C18.2077 2.85008 17.6493 2.29175 16.3327 2.29175H14.666Z" fill="#26272B"/>
<path d="M16.3327 18.9584H14.666C12.6493 18.9584 11.541 17.8501 11.541 15.8334V14.1667C11.541 12.1501 12.6493 11.0417 14.666 11.0417H16.3327C18.3493 11.0417 19.4577 12.1501 19.4577 14.1667V15.8334C19.4577 17.8501 18.3493 18.9584 16.3327 18.9584ZM14.666 12.2917C13.3493 12.2917 12.791 12.8501 12.791 14.1667V15.8334C12.791 17.1501 13.3493 17.7084 14.666 17.7084H16.3327C17.6493 17.7084 18.2077 17.1501 18.2077 15.8334V14.1667C18.2077 12.8501 17.6493 12.2917 16.3327 12.2917H14.666Z" fill="#26272B"/>
<path d="M6.33268 18.9584H4.66602C2.64935 18.9584 1.54102 17.8501 1.54102 15.8334V14.1667C1.54102 12.1501 2.64935 11.0417 4.66602 11.0417H6.33268C8.34935 11.0417 9.45768 12.1501 9.45768 14.1667V15.8334C9.45768 17.8501 8.34935 18.9584 6.33268 18.9584ZM4.66602 12.2917C3.34935 12.2917 2.79102 12.8501 2.79102 14.1667V15.8334C2.79102 17.1501 3.34935 17.7084 4.66602 17.7084H6.33268C7.64935 17.7084 8.20768 17.1501 8.20768 15.8334V14.1667C8.20768 12.8501 7.64935 12.2917 6.33268 12.2917H4.66602Z" fill="#1C3A63"/>
</svg>
