<svg width="21" height="20" viewBox="0 0 21 20" fill="none" xmlns="http://www.w3.org/2000/svg">
<path d="M16.9912 12.4416C15.2746 14.1499 12.8162 14.6749 10.6579 13.9999L6.73289 17.9166C6.44955 18.2083 5.89122 18.3833 5.49122 18.3249L3.67455 18.0749C3.07455 17.9916 2.51622 17.4249 2.42455 16.8249L2.17455 15.0083C2.11622 14.6083 2.30789 14.0499 2.58289 13.7666L6.49955 9.84994C5.83289 7.68327 6.34955 5.22494 8.06622 3.5166C10.5246 1.05827 14.5162 1.05827 16.9829 3.5166C19.4496 5.97494 19.4496 9.98327 16.9912 12.4416Z" stroke="#B7BBC2" stroke-width="1.5" stroke-miterlimit="10" stroke-linecap="round" stroke-linejoin="round"/>
<path d="M6.24219 14.5752L8.15885 16.4919" stroke="#B7BBC2" stroke-width="1.5" stroke-miterlimit="10" stroke-linecap="round" stroke-linejoin="round"/>
<path d="M12.584 9.1665C13.2743 9.1665 13.834 8.60686 13.834 7.9165C13.834 7.22615 13.2743 6.6665 12.584 6.6665C11.8936 6.6665 11.334 7.22615 11.334 7.9165C11.334 8.60686 11.8936 9.1665 12.584 9.1665Z" stroke="#B7BBC2" stroke-width="1.5" stroke-linecap="round" stroke-linejoin="round"/>
</svg>
