<svg width="57" height="32" viewBox="0 0 57 32" fill="none" xmlns="http://www.w3.org/2000/svg">
<g clip-path="url(#clip0_2027_40267)">
<path d="M28.4855 26.0311C26.1523 26.0436 24.1649 25.5248 22.2476 24.6802C20.4882 23.9058 18.8993 22.8632 17.4607 21.5951C15.9846 20.2944 14.744 18.7931 13.7942 17.0613C13.6463 16.7932 13.5185 16.515 13.3656 16.2518C13.2804 16.104 13.2979 15.9887 13.3706 15.8408C14.0798 14.3922 14.9771 13.0789 16.0672 11.8885C18.3103 9.43746 21.007 7.69814 24.1724 6.69563C25.1598 6.38237 26.1749 6.1894 27.2124 6.10414C29.0369 5.9538 30.8088 6.19437 32.5481 6.7282C34.9691 7.46757 37.147 8.66803 39.0843 10.2896C40.9364 11.8384 42.4577 13.6604 43.5178 15.8458C43.588 15.9912 43.593 16.1015 43.5178 16.2543C42.5955 18.154 41.3199 19.7906 39.771 21.2091C37.3851 23.3895 34.6308 24.9058 31.478 25.6601C30.4254 25.9133 29.3552 26.0687 28.488 26.0285L28.4855 26.0311ZM28.4079 7.49512C23.8466 7.47255 20.0547 11.2143 19.967 15.8132C19.8742 20.7455 23.7614 24.3619 28.037 24.5273C33.0093 24.7228 36.7335 20.6753 36.8363 16.2368C36.9515 11.3722 32.9893 7.45003 28.4054 7.4926L28.4079 7.49512Z" fill="#164194"/>
<path d="M0.502506 16.0015C0.893475 15.4577 1.23683 14.9665 1.59522 14.4878C2.76812 12.929 4.13401 11.543 5.5425 10.2022C7.29183 8.53806 9.15646 7.00674 11.1414 5.62584C12.8832 4.41283 14.7002 3.32514 16.6199 2.41538C18.8856 1.34272 21.2364 0.505647 23.7351 0.179839C24.7752 0.0445041 25.8403 -0.0306818 26.8879 0.0119238C29.5069 0.119691 31.8953 0.9292 33.9304 2.63342C35.2086 3.70358 36.2161 4.99929 36.9955 6.47046C37.2386 6.92657 37.4516 7.40023 37.6747 7.8664C37.6972 7.91149 37.7022 7.96663 37.7323 8.07189C37.4315 7.81377 37.1759 7.59069 36.9178 7.37269C35.3063 6.01931 33.5018 5.02936 31.4442 4.54316C29.3615 4.04943 27.2814 4.12713 25.2163 4.67097C22.6223 5.35266 20.3417 6.64086 18.2189 8.24234C16.9307 9.21474 15.7378 10.2949 14.6225 11.4578C13.3469 12.7886 12.1589 14.1921 11.1865 15.7685C11.0787 15.9439 10.9534 16.0066 10.7404 16.0066C7.4372 15.9991 4.13401 16.0015 0.83082 16.0015H0.5H0.502506Z" fill="#164194"/>
<path d="M19.3136 24.0014C19.7772 24.3798 20.2308 24.7708 20.707 25.1342C22.2759 26.3246 24.0052 27.1968 25.95 27.5477C26.8898 27.7181 27.8597 27.8208 28.8121 27.7958C30.802 27.7432 32.6942 27.2068 34.5037 26.3797C36.6941 25.3773 38.644 24.0189 40.4359 22.4225C42.4258 20.6481 44.2378 18.7133 45.6864 16.4627C45.8945 16.1394 46.105 16.0366 46.4809 16.0391C49.6813 16.0566 52.8818 16.0492 56.0822 16.0492C56.1925 16.0492 56.3002 16.0492 56.4857 16.0492C56.1324 16.5454 55.8266 16.9915 55.5008 17.425C54.3955 18.8937 53.1374 20.2245 51.8141 21.4952C49.6964 23.5302 47.4333 25.3898 44.9797 27.0088C42.7968 28.4499 40.5011 29.6854 38.0475 30.6027C36.2756 31.2644 34.4636 31.7857 32.5689 31.916C31.5288 31.9886 30.4762 32.0413 29.4412 31.9536C27.0528 31.7506 24.8974 30.9085 23.0503 29.3496C21.7672 28.2669 20.7697 26.9587 19.9877 25.48C19.7371 25.0089 19.509 24.5252 19.2734 24.0465C19.2885 24.0314 19.306 24.0164 19.321 24.0014H19.3136Z" fill="#164194"/>
<path d="M35.2849 18.6894C35.2047 18.8824 35.1495 19.0277 35.0844 19.1681C34.132 21.2307 32.6433 22.7169 30.3977 23.2683C26.2951 24.2757 22.5533 22.0252 21.4932 18.0253C20.2877 13.474 23.1899 9.57431 27.0144 8.7322C29.2424 8.241 31.2624 8.80488 33.0318 10.2259C34.4478 11.3637 35.3927 12.8123 35.6583 14.6319C35.7636 15.3511 35.7535 16.088 35.7961 16.8173C35.8087 17.0228 35.6859 17.0604 35.5129 17.0604C34.7511 17.0553 33.9917 17.0604 33.2298 17.0604C30.4554 17.0604 27.681 17.0604 24.9091 17.0604C24.5157 17.0604 24.4906 17.0904 24.5683 17.4714C24.9292 19.2433 26.3101 20.3761 28.1296 20.4388C29.2148 20.4763 30.2148 20.2683 31.0619 19.554C31.3 19.3536 31.488 19.0929 31.706 18.8673C31.7787 18.7947 31.8764 18.6995 31.9641 18.6969C33.0493 18.6844 34.132 18.6894 35.2773 18.6894H35.2849ZM32.3351 14.504C32.2975 14.3662 32.2799 14.2785 32.2499 14.1933C31.701 12.682 30.6534 11.7973 29.0344 11.5793C27.1748 11.3287 25.3778 12.3737 24.7537 14.1231C24.6159 14.5116 24.6235 14.5266 25.0344 14.5266C27.3427 14.5266 29.6534 14.5266 31.9616 14.5266C32.0694 14.5266 32.1797 14.514 32.3351 14.5065V14.504Z" fill="#EC6608"/>
</g>
<defs>
<clipPath id="clip0_2027_40267">
<rect width="56" height="32" fill="white" transform="translate(0.5)"/>
</clipPath>
</defs>
</svg>
