<svg width="21" height="20" viewBox="0 0 21 20" fill="none" xmlns="http://www.w3.org/2000/svg">
<path d="M18 6.45825H3C2.65833 6.45825 2.375 6.17492 2.375 5.83325C2.375 5.49159 2.65833 5.20825 3 5.20825H18C18.3417 5.20825 18.625 5.49159 18.625 5.83325C18.625 6.17492 18.3417 6.45825 18 6.45825Z" fill="#1C3A63"/>
<path d="M18 10.625H3C2.65833 10.625 2.375 10.3417 2.375 10C2.375 9.65833 2.65833 9.375 3 9.375H18C18.3417 9.375 18.625 9.65833 18.625 10C18.625 10.3417 18.3417 10.625 18 10.625Z" fill="#1C3A63"/>
<path d="M18 14.7917H3C2.65833 14.7917 2.375 14.5084 2.375 14.1667C2.375 13.8251 2.65833 13.5417 3 13.5417H18C18.3417 13.5417 18.625 13.8251 18.625 14.1667C18.625 14.5084 18.3417 14.7917 18 14.7917Z" fill="#1C3A63"/>
</svg>
