<?xml version="1.0" encoding="UTF-8"?>
<svg id="Layer_1" data-name="Layer 1" xmlns="http://www.w3.org/2000/svg" viewBox="0 0 294 117">
  <defs>
    <style>
      .cls-1 {
        fill: #fff;
      }

      .cls-2 {
        fill: #09529e;
      }

      .cls-3 {
        fill: #f8971d;
      }
    </style>
  </defs>
  <path class="cls-3" d="M16.68,100.29C7.47,100.29,0,107.77,0,117H0s169.48,0,169.48,0c0-6.4,2.39-12.25,6.33-16.71H16.68Z"/>
  <path class="cls-3" d="M253.3,100.29c0,6.4-2.39,12.25-6.33,16.71h30.35c9.21,0,16.68-7.48,16.68-16.71h0s-40.7,0-40.7,0Z"/>
  <path class="cls-2" d="M50.08,24.19v1.78c-.01-.29-.02-.59-.02-.89s0-.59.02-.89Z"/>
  <path class="cls-2" d="M240.79,0h53.21v3.18c0,7.46-6.06,13.53-13.53,13.53h-53.21v-3.18C227.26,6.06,233.32,0,240.79,0Z" transform="translate(521.26 16.71) rotate(-180)"/>
  <path class="cls-2" d="M178.02,117h50.06c9.21,0,16.68-7.48,16.68-16.71h-50.06c-9.21,0-16.68,7.48-16.68,16.71Z"/>
  <path class="cls-2" d="M294,33.42v16.34c0,18.52-15.13,33.95-33.62,33.82-9.12-.07-17.37-3.79-23.35-9.79-.5-.5-.97-1.01-1.43-1.53-6.11,6.94-15.06,11.32-25.03,11.32-8.51,0-16.28-3.19-22.17-8.45-.33.38-.68.75-1.03,1.1-4.53,4.54-10.79,7.35-17.7,7.35H25.04c-6.91,0-13.18-2.81-17.7-7.35-4.53-4.54-7.34-10.81-7.34-17.73V17.03C0,7.8,7.48.31,16.7.31h0v58.21c0,2.31.94,4.4,2.45,5.91,1.51,1.51,3.59,2.45,5.89,2.45.1,0,.19,0,.29,0h144.35c2.3,0,4.39-.93,5.9-2.45,1.51-1.51,2.45-3.6,2.45-5.91,0-4.61-3.74-8.35-8.34-8.35h-94.58c-10.91,0-20.19-6.98-23.62-16.73-.83-2.34-1.31-4.85-1.4-7.46v-1.78c.23-6.57,2.98-12.5,7.32-16.85C61.92,2.81,68.18,0,75.1,0h118.79c0,9.23-7.47,16.72-16.69,16.72h-102.12c-2.31,0-4.39.93-5.9,2.45-1.51,1.51-2.44,3.6-2.44,5.91,0,4.61,3.73,8.35,8.34,8.35h94.58c2.63,0,5.16.4,7.54,1.16,7.5,2.37,13.47,8.18,16.08,15.58,0,0,2.48,8.8,5.5,11.82,3.02,3.02,7.19,4.89,11.8,4.89,9.22,0,16.69-7.48,16.69-16.71h0v-.02c0-9.23,7.47-16.72,16.69-16.72h0v16.74c0,4.61,1.87,8.79,4.89,11.81,3.12,3.13,7.47,5.02,12.27,4.89,9.08-.25,16.21-7.9,16.21-17h0c0-9.08,7.35-16.44,16.42-16.44h.26Z"/>
  <g>
    <polygon class="cls-1" points="88.8 114.7 89.84 115.58 90.61 114.72 89.57 113.85 88.8 114.7"/>
    <polygon class="cls-1" points="89.49 113.26 88.46 112.38 87.63 113.3 88.74 114.22 89.52 113.34 90.57 114.22 91.39 113.31 90.29 112.38 89.49 113.26"/>
    <path class="cls-1" d="M93.49,107.79l-1.5-.23-.48-.28c-1.06-.64-1.85-1.08-2.37-1.33-.52-.24-.97-.36-1.33-.36-.2,0-.42.06-.65.18-.24.12-.5.37-.8.73-.28.34-.69.96-1.22,1.84l1.16.69.76-1.04c.17-.23.31-.38.44-.45.12-.07.25-.1.37-.1.12,0,.28.04.5.13.22.09.66.28,1.32.59l.68.31-.97.54c-.65.37-1.3.62-1.96.75-.66.13-1.53.2-2.62.2-.39,0-.7-.02-.93-.07-.22-.05-.4-.14-.53-.29-.13-.15-.2-.38-.21-.69l-.16-3.81-1.42.28.03.46-2.07.66c-.38.12-.68.24-.88.38-.21.14-.37.34-.49.6-.12.26-.22.64-.29,1.12-.02.14-.03.28-.03.43,0,.57.2,1.04.59,1.41s1.05.55,1.97.55c.67,0,1.25-.12,1.77-.35.27.48.63.81,1.08.99.46.18.98.27,1.58.27,1.16,0,2.16-.13,2.98-.39.82-.26,1.59-.63,2.32-1.11.56-.38.99-.63,1.28-.75s.6-.19.92-.19c.17,0,.4.02.69.05l.5-1.71ZM80.36,109.24c-.3,0-.53-.01-.68-.03-.15-.02-.26-.06-.32-.12-.06-.06-.09-.15-.09-.26,0-.03,0-.11.02-.22l.09-.55,2.28-.68.12,1.72c-.45.1-.92.16-1.41.16Z"/>
    <path class="cls-1" d="M97.22,107.3l-1.61.71c.17.83.3,1.49.39,2,.09.5.17,1.02.23,1.54-.22.31-.54.58-.97.8-.5.25-1.11.38-1.83.38-.28,0-.54-.01-.78-.04l-.21,1.48.47.16c.16.06.4.13.71.2.31.08.53.11.64.1.61-.06,1.18-.26,1.7-.58.52-.32.94-.75,1.25-1.3.31-.55.47-1.17.47-1.88,0-.26-.03-.63-.09-1.11-.06-.48-.19-1.3-.37-2.45Z"/>
    <polygon class="cls-1" points="101.93 115.19 102.98 116.06 103.74 115.21 102.7 114.33 101.93 115.19"/>
    <polygon class="cls-1" points="102.63 113.74 101.59 112.87 100.76 113.78 101.87 114.7 102.66 113.83 103.7 114.7 104.52 113.79 103.42 112.87 102.63 113.74"/>
    <polygon class="cls-1" points="114.73 113.93 115.78 114.8 116.59 113.89 115.5 112.97 114.7 113.84 113.66 112.97 112.84 113.88 113.95 114.8 114.73 113.93"/>
    <path class="cls-1" d="M117.71,109.73c0-.31-.07-.8-.2-1.47-.13-.67-.31-1.5-.54-2.48l-1.61.81.86,3.23c-.27.06-.58.1-.93.11-.35.02-.74.02-1.18.02-.36,0-.63-.01-.79-.03-.16-.02-.29-.08-.37-.17-.08-.09-.14-.24-.16-.45,0-.05-.01-.1-.02-.15v-.04l-.05-.39c-.05-.43-.14-.77-.26-1.04-.12-.27-.32-.5-.61-.69-.28-.19-.68-.36-1.2-.51l-.65-.17,2.84-.9v-1.72l-4.34,1.5c-.22.08-.39.17-.5.29s-.2.25-.24.39c-.05.15-.08.34-.12.57l-.12.85,2.84.8c.27.07.47.14.59.2.12.06.21.14.26.23.05.09.09.22.12.4l.13.88c-.28.07-.61.12-.97.14-.36.02-.78.03-1.26.03h-2.18c-.32,0-.62-.02-.89-.06-.27-.04-.46-.09-.58-.15l-.13-2.9-1.63.46.16,2.53c-.42.08-1.17.13-2.25.13-.38,0-.66-.03-.86-.1-.2-.07-.34-.19-.42-.36-.08-.17-.13-.43-.13-.76v-1c0-.8-.02-1.45-.07-1.94-.05-.49-.13-.92-.26-1.29-.13-.37-.32-.7-.57-1.01l-1.26,1.19c.21.41.35.73.43.98.08.24.13.54.15.9.02.36.03.97.03,1.83v.7c0,1,.26,1.71.77,2.15.51.44,1.24.66,2.19.66.66,0,1.18-.02,1.55-.07.37-.05.68-.13.93-.25.24-.12.45-.3.64-.55.26.36.57.59.92.7.36.11.78.17,1.28.17h2.18c.65,0,1.21-.05,1.67-.15.46-.1.82-.22,1.08-.38.08-.05.16-.11.25-.19.42.48,1.05.72,1.88.72.65,0,1.21-.05,1.67-.14.46-.09.82-.22,1.08-.38.23-.14.42-.35.59-.62.17-.27.25-.61.25-1.02Z"/>
    <polygon class="cls-1" points="131.53 114.8 132.34 113.89 131.25 112.97 130.45 113.84 129.41 112.97 128.59 113.88 129.7 114.8 130.48 113.93 131.53 114.8"/>
    <polygon class="cls-1" points="153.54 104.57 152.51 103.7 151.68 104.61 152.79 105.53 153.57 104.66 154.62 105.53 155.44 104.62 154.34 103.7 153.54 104.57"/>
    <path class="cls-1" d="M154.56,105.78l-1.61.81.86,3.23c-.27.06-.58.1-.93.11-.35.02-.74.02-1.18.02-.4,0-.73-.02-.98-.07-.26-.05-.47-.12-.64-.23-.08-.42-.27-1.27-.55-2.55l-.24-1.09-1.55.85.88,3.46c-.47-.05-.85-.1-1.13-.16-.21-.03-.4-.08-.59-.14l.38-2.04-1.37-.25-.48,2.34c-.24.05-.48.07-.72.07-.45,0-.9-.07-1.37-.21.1-.23.21-.53.32-.89l.5-1.7-1.41-.3-.45,1.49c-.14.45-.27.77-.41.96-.14.19-.32.32-.55.38-.23.06-.58.09-1.06.09h-1.05c-.21,0-.37.05-.48.14-.12.09-.28.3-.49.61-.1.14-.16.27-.2.37-.04.11-.06.22-.06.34,0,.09,0,.2.03.33,0,.05,0,.14.02.25l.08.74c-1.25-.3-2.02-.51-2.32-.62-.11-.05-.18-.08-.2-.1-.03-.02-.04-.06-.04-.11v-.11c.67-.03,1.24-.18,1.71-.44.47-.26.81-.59,1.04-.97.23-.39.34-.77.34-1.16,0-.25-.03-.45-.1-.63-.07-.17-.22-.43-.47-.77-.25-.34-.74-1-1.47-1.96-.05-.07-.1-.14-.16-.2l-1.35.55c-.21.64-.4,1.29-.55,1.94-.16.65-.27,1.25-.34,1.8h-.81c-.32,0-.62-.02-.89-.06-.27-.04-.46-.09-.58-.15l-.13-2.9-1.63.46.16,2.53c-.42.08-1.17.13-2.25.13-.67,0-1.15-.07-1.46-.2v-2.06c0-.8-.02-1.44-.06-1.92-.04-.48-.12-.9-.25-1.27-.12-.36-.3-.7-.54-1l-1.28,1.19c.2.38.34.69.41.94.07.24.12.54.14.89.02.35.03.96.03,1.83v3.59c-.36.13-.77.23-1.22.32-.45.08-.91.12-1.39.12s-.83-.04-1.09-.11c-.26-.07-.45-.2-.56-.37s-.17-.42-.17-.74c0-.19.01-.39.04-.57l.26-2.05-1.45-.15-.3,2.4c-.03.23-.05.48-.05.76,0,1.05.29,1.77.88,2.18.59.4,1.36.6,2.33.6.65,0,1.27-.07,1.86-.21.59-.14,1.1-.34,1.54-.58.09-.05.21-.19.34-.43.14-.23.26-.48.36-.75.1-.27.16-.47.16-.62v-.03c.21.08.43.13.66.16.24.03.5.04.8.04.66,0,1.18-.02,1.55-.07.37-.05.68-.13.93-.25.24-.12.45-.3.64-.55.26.36.57.59.92.7.36.11.78.17,1.28.17h.78v.04c.11.52.24.92.39,1.22.15.29.36.49.64.6.27.1.72.24,1.36.42.64.18,1.23.33,1.77.45l1.2-1.36-.11-1.36h.85c.43,0,.8-.03,1.13-.1.33-.07.64-.22.94-.46.29.22.6.39.93.5.33.11.71.17,1.14.17.36,0,.68-.05.97-.16.29-.11.54-.29.76-.56.1.23.23.39.37.5.14.11.32.18.53.21.58.09,1.09.16,1.53.19.18,0,.38-.06.61-.2.22-.14.42-.32.59-.53.48.3,1.12.45,1.92.45.65,0,1.21-.05,1.67-.14.46-.09.82-.22,1.08-.38.23-.14.42-.35.59-.62.17-.27.25-.61.25-1.02,0-.31-.07-.8-.2-1.47-.13-.67-.31-1.5-.54-2.48ZM136.07,107.49c.76.95,1.25,1.62,1.45,2.02-.22.16-.5.29-.84.38-.34.09-.73.15-1.15.16.12-.74.3-1.6.54-2.56Z"/>
    <path class="cls-1" d="M24.39,111.61c.15-.23.28-.48.39-.75.11-.27.16-.47.16-.62,0-.14-.04-.33-.09-.55-.06-.22-.11-.4-.16-.52-.12-.29-.27-.5-.48-.62-.2-.12-.45-.21-.75-.25l-1.96-.29.26-1.16c.05-.23.15-.39.28-.49.14-.1.34-.15.6-.15.17,0,.35.02.56.06.2.04.57.13,1.09.28l.5-1.67c-.65-.21-1.1-.34-1.35-.4-.26-.06-.51-.09-.76-.09-.55,0-1.02.16-1.43.48-.4.32-.68.82-.82,1.5l-.39,1.76c-.03.1-.04.2-.04.3,0,.14.04.31.12.5.07.17.15.31.22.42.1.16.2.26.29.31.09.05.24.09.44.13l2.14.29c.1.01.16.03.2.06.04.03.07.08.1.15l.03.09c-.42.16-.91.28-1.45.38-.55.1-1.14.15-1.77.15-.5,0-.89-.04-1.16-.11-.28-.07-.48-.2-.6-.37-.12-.17-.18-.42-.18-.75,0-.19.01-.38.04-.56l.26-2.05-1.45-.15-.3,2.4c-.03.23-.05.48-.05.76,0,1.05.3,1.77.9,2.18.6.4,1.41.6,2.43.6.77,0,1.47-.07,2.11-.21.64-.14,1.2-.34,1.69-.58.1-.05.22-.19.37-.43Z"/>
    <path class="cls-1" d="M28.03,107.3l-1.61.71c.17.83.3,1.49.39,2,.09.5.17,1.02.23,1.54-.22.31-.54.58-.97.8-.5.25-1.11.38-1.83.38-.28,0-.54-.01-.78-.04l-.21,1.48.47.16c.16.06.4.13.71.2.31.08.53.11.65.1.61-.06,1.18-.26,1.7-.58.52-.32.94-.75,1.25-1.3.31-.55.47-1.17.47-1.88,0-.26-.03-.63-.09-1.11-.06-.48-.19-1.3-.37-2.45Z"/>
    <path class="cls-1" d="M30.86,104.49c-.13-.36-.32-.7-.57-1l-1.32,1.23c.21.41.35.73.43.98.08.24.13.54.15.9.02.36.03.97.03,1.83v3.65l1.6-.21v-4.15c0-.81-.02-1.46-.07-1.95-.05-.49-.13-.92-.26-1.28Z"/>
    <path class="cls-1" d="M37.34,107.73c-.07-.21-.21-.44-.42-.7-.21-.26-.54-.56-.98-.92l-1.26-1.02-1.05,1.41,1.37,1.06c.36.27.6.46.72.58.13.11.21.21.25.29.04.08.07.21.09.37l.14,1.02c-.28.06-.59.12-.93.16-.34.04-.63.06-.89.06-.38,0-.65-.05-.81-.15-.16-.1-.24-.28-.24-.56,0-.04,0-.12.02-.25l.1-.8-1.35-.23-.15,1.27c-.02.16-.03.32-.03.49,0,.71.2,1.25.61,1.62.4.37,1,.55,1.78.55.4,0,.79-.03,1.16-.09.37-.06.69-.13.95-.22.35-.12.64-.34.88-.66.24-.32.35-.72.35-1.2,0-.12-.04-.53-.13-1.23-.05-.36-.1-.64-.17-.85Z"/>
    <path class="cls-1" d="M40.01,104.49c-.13-.36-.32-.7-.57-1l-1.32,1.23c.21.41.35.73.43.98.08.24.13.54.15.9.02.36.03.97.03,1.83v3.65l1.6-.21v-4.15c0-.81-.02-1.46-.07-1.95-.05-.49-.13-.92-.26-1.28Z"/>
    <path class="cls-1" d="M49.74,109.89c-.12-.29-.27-.5-.48-.62-.2-.12-.45-.21-.75-.25l-1.96-.29.26-1.16c.05-.23.15-.39.28-.49.14-.1.34-.15.6-.15.17,0,.35.02.56.06.2.04.57.13,1.09.28l.5-1.67c-.65-.21-1.1-.34-1.35-.4-.26-.06-.51-.09-.76-.09-.55,0-1.02.16-1.43.48-.4.32-.68.82-.82,1.5l-.39,1.76c-.03.1-.04.2-.04.3,0,.14.04.31.12.5.07.17.15.31.22.42.1.16.2.26.29.31.09.05.24.09.44.13l2.14.29c.1.01.16.03.2.06s.07.08.1.15l.03.09c-.42.16-.91.28-1.45.38-.55.1-1.14.15-1.77.15-.5,0-.89-.04-1.16-.11-.28-.07-.48-.2-.6-.37-.12-.17-.18-.42-.18-.75,0-.19.01-.38.04-.56l.26-2.05-1.45-.15-.3,2.4c-.03.23-.05.48-.05.76,0,1.05.3,1.77.9,2.18.6.4,1.41.6,2.43.6.77,0,1.47-.07,2.11-.21.64-.14,1.2-.34,1.69-.58.1-.05.22-.19.37-.43.15-.23.28-.48.39-.75.11-.27.16-.47.16-.62,0-.14-.04-.33-.09-.55-.05-.22-.11-.4-.16-.52Z"/>
    <path class="cls-1" d="M62.23,110.16l.12-1c.02-.16.03-.3.03-.45,0-.44-.1-.82-.3-1.14-.2-.32-.51-.6-.94-.85-.43-.25-1.01-.48-1.73-.71l-4.12-1.31-.58,1.68.69.22c-.38.51-.63.92-.77,1.23-.14.31-.2.6-.2.86,0,.21.04.42.13.65.08.23.21.42.39.59h-.89c-.38,0-.66-.03-.86-.1-.2-.07-.34-.19-.42-.36-.08-.17-.13-.43-.13-.76v-1c0-.8-.02-1.45-.07-1.94-.05-.49-.13-.92-.26-1.29-.13-.37-.32-.7-.57-1.01l-1.26,1.19c.21.41.35.73.43.98.08.24.13.54.15.9.02.36.03.97.03,1.83v.7c0,1,.26,1.71.77,2.15.51.44,1.24.66,2.19.66.78,0,1.4-.03,1.88-.08.48-.05.88-.19,1.21-.41.62.19,1.26.33,1.91.44.65.1,1.16.16,1.54.16.44,0,.81-.15,1.1-.45.29-.3.48-.76.55-1.38ZM58.11,108.35c0,.15-.04.36-.1.63-.06.27-.14.55-.25.85-.79-.28-1.33-.52-1.62-.7-.29-.18-.44-.35-.44-.5,0-.11.08-.31.23-.6.16-.29.37-.62.64-1.01.56.05.96.16,1.21.35.25.19.36.52.32.98ZM61.03,109.48l-.14.92c-.87-.12-1.54-.24-2.03-.36.27-.75.4-1.53.38-2.33l.19.06c.45.13.78.25,1,.35.22.1.38.23.48.37.1.14.15.33.15.55,0,.14-.01.29-.04.44Z"/>
    <path class="cls-1" d="M66.18,107.3l-1.61.71c.17.83.3,1.49.39,2,.09.5.17,1.02.23,1.54-.22.31-.54.58-.97.8-.5.25-1.11.38-1.83.38-.28,0-.54-.01-.78-.04l-.21,1.48.47.16c.16.06.4.13.71.2.31.08.53.11.65.1.61-.06,1.18-.26,1.7-.58.52-.32.94-.75,1.25-1.3.31-.55.47-1.17.47-1.88,0-.26-.03-.63-.09-1.11-.06-.48-.19-1.3-.37-2.45Z"/>
    <path class="cls-1" d="M70.97,105.48c-.12.12-.2.25-.24.39-.05.15-.08.34-.12.57l-.12.85,2.84.8c.27.08.47.15.6.21.13.06.21.14.26.22.05.09.09.22.11.39l.13.88c-.28.07-.61.12-.97.14-.36.02-.78.03-1.26.03h-1.5c-.38,0-.66-.03-.86-.1-.2-.07-.34-.19-.42-.36-.08-.17-.13-.43-.13-.76v-1c0-.8-.02-1.45-.07-1.94-.05-.49-.13-.92-.26-1.29-.13-.37-.32-.7-.57-1.01l-1.26,1.19c.21.41.35.73.43.98.08.24.13.54.15.9.02.36.03.97.03,1.83v.7c0,1,.26,1.71.77,2.15.51.44,1.24.66,2.19.66h1.5c.65,0,1.21-.05,1.67-.14.46-.09.82-.22,1.07-.38.23-.14.42-.35.59-.62.17-.27.25-.61.25-1.02,0-.1-.04-.44-.11-1.01-.05-.43-.14-.77-.26-1.04-.12-.27-.32-.5-.61-.69-.28-.19-.68-.36-1.2-.51l-.65-.17,2.84-.9v-1.72l-4.34,1.5c-.22.08-.39.17-.5.29Z"/>
  </g>
</svg>