<svg width="24" height="24" viewBox="0 0 24 24" fill="none" xmlns="http://www.w3.org/2000/svg">
<g clip-path="url(#clip0_48_47094)">
<path fill-rule="evenodd" clip-rule="evenodd" d="M5.71882 -0.0214844H18.2692C21.4297 -0.0214844 24.0144 2.5204 24.0144 5.62398V18.3715C24.0144 21.4798 21.4297 24.0217 18.2692 24.0217H5.71882C2.55824 24.0217 -0.0263672 21.4798 -0.0263672 18.3715V5.62398C-0.0263672 2.5204 2.55824 -0.0214844 5.71882 -0.0214844ZM13.6275 11.9168L13.7437 19.1045C13.7582 20.147 12.9015 21.0181 11.8415 21.0371C10.7767 21.0514 9.89581 20.2089 9.87646 19.1664L9.76513 11.9787C9.74577 10.9315 10.6025 10.0651 11.6624 10.0461C12.7273 10.0318 13.6082 10.8696 13.6275 11.9168ZM19.5421 12.8593C18.8064 13.5828 17.6012 13.5828 16.8655 12.8593L14.0777 10.1175C13.9082 9.96042 13.7292 9.79858 13.5549 9.64625C13.1822 9.31781 12.8144 9.04172 12.4804 8.8894C12.1513 8.73708 11.8512 8.70376 11.5511 8.7466C11.2462 8.78944 10.9364 8.90368 10.5492 9.14168C10.162 9.37969 9.69737 9.74146 9.27144 10.108C8.84552 10.4793 8.45831 10.8601 8.08078 11.2409C7.91622 11.4027 7.75166 11.5693 7.63065 11.6741L6.57067 12.7165C5.83498 13.44 4.6298 13.44 3.8941 12.7165C3.15841 11.993 3.15841 10.8077 3.8941 10.0794L8.93264 5.12893C8.94232 5.11465 8.95684 5.10513 8.96652 5.09085L10.1911 3.89131C10.9897 3.10589 12.3013 3.10589 13.1048 3.89131L19.5421 10.227C20.2778 10.9505 20.2778 12.1358 19.5421 12.8593Z" fill="#FB5A1F" stroke="#FB5A1F" stroke-width="0.666674"/>
</g>
<defs>
<clipPath id="clip0_48_47094">
<rect width="24" height="24" fill="white"/>
</clipPath>
</defs>
</svg>
