<svg width="24" height="24" viewBox="0 0 24 24" fill="none" xmlns="http://www.w3.org/2000/svg">
<path fill-rule="evenodd" clip-rule="evenodd" d="M18.453 6.45856H22.4524C22.8048 6.45856 23.094 6.77175 23.094 7.14973V8.41686C23.094 8.79844 22.8048 9.10803 22.4524 9.10803H18.453C18.1006 9.10803 17.8114 8.79844 17.8114 8.41686V7.14973C17.8114 6.77175 18.1006 6.45856 18.453 6.45856ZM14.0514 4.20508H15.4277C15.7801 4.20508 16.066 4.51826 16.066 4.89984V10.17C16.096 10.3284 16.1159 10.4256 16.1458 10.512C16.1791 10.6128 16.2256 10.6919 16.2921 10.7747C16.3553 10.8539 16.4351 10.9367 16.6013 10.9763C16.7609 11.0159 17.0036 11.0159 17.2861 11.0159H17.326H22.981V13.2874C22.981 13.669 22.6918 13.9786 22.3427 13.9786H16.066H15.9696C14.5634 13.9786 13.4098 12.733 13.4098 11.2067V4.89984C13.4098 4.51826 13.699 4.20508 14.0514 4.20508ZM11.937 11.0843H4.35048C4.30726 11.0843 4.19423 11.0843 4.13106 11.0843C4.06125 11.0735 3.99144 11.0735 3.92162 11.0591C3.62574 10.9187 3.42294 10.6451 3.42294 9.82079C3.42294 9.45721 3.13371 9.12603 2.78132 9.12603H1.36508C1.01268 9.12603 0.723446 9.43921 0.723446 9.82079V11.0843H0.716797V11.1383C0.716797 11.1995 0.720121 11.2571 0.723446 11.3183V11.3219C0.809883 12.7618 1.92692 13.9102 3.27999 13.9102H11.2987C11.6478 13.9102 11.937 13.597 11.937 13.219V11.0843ZM7.17299 16.1493H11.1757C11.5281 16.1493 11.814 16.4589 11.814 16.8404V17.5136C11.8173 17.5244 11.8173 17.5316 11.8173 17.5424V19.3171C11.8173 19.7275 11.5048 20.0623 11.1258 20.0623H9.86584C9.48684 20.0623 9.17434 19.7275 9.17434 19.3171V18.7987H7.17299C6.82059 18.7987 6.53468 18.4892 6.53468 18.1076V16.8404C6.53468 16.4589 6.82059 16.1493 7.17299 16.1493Z" fill="#FB5A1F" stroke="#FB5A1F" stroke-width="0.666674"/>
</svg>
