<svg width="46" height="25" viewBox="0 0 46 25" fill="none" xmlns="http://www.w3.org/2000/svg">
<g clip-path="url(#clip0_940_5708)">
<path d="M22.9887 20.337C21.1138 20.3467 19.5167 19.9415 17.9761 19.2816C16.5623 18.6766 15.2855 17.8621 14.1295 16.8713C12.9433 15.8552 11.9464 14.6823 11.1832 13.3294C11.0643 13.1199 10.9616 12.9025 10.8388 12.6969C10.7703 12.5814 10.7844 12.4913 10.8428 12.3758C11.4127 11.2441 12.1337 10.2181 13.0097 9.28808C14.8122 7.37321 16.9792 6.01437 19.5228 5.23116C20.3163 4.98643 21.1319 4.83567 21.9657 4.76906C23.4318 4.65161 24.8556 4.83955 26.2533 5.25661C28.1988 5.83424 29.9488 6.7721 31.5056 8.03893C32.9939 9.24893 34.2164 10.6724 35.0682 12.3797C35.1246 12.4933 35.1287 12.5795 35.0682 12.6989C34.3271 14.183 33.302 15.4616 32.0574 16.5698C30.1402 18.2733 27.9269 19.4579 25.3934 20.0472C24.5475 20.245 23.6876 20.3663 22.9907 20.335L22.9887 20.337ZM22.9263 5.85576C19.261 5.83812 16.2139 8.76138 16.1434 12.3543C16.0689 16.2076 19.1925 19.0329 22.6283 19.1622C26.6239 19.3149 29.6166 16.1528 29.6991 12.6852C29.7918 8.88473 26.6078 5.82053 22.9243 5.85379L22.9263 5.85576Z" fill="#164194"/>
<path d="M0.502014 12.5012C0.816186 12.0763 1.09209 11.6926 1.38009 11.3186C2.3226 10.1008 3.42019 9.01799 4.55201 7.97045C5.95772 6.67036 7.45608 5.47402 9.0511 4.39519C10.4508 3.44753 11.9109 2.59776 13.4535 1.88702C15.2741 1.049 17.1632 0.395037 19.1711 0.1405C20.0069 0.0347688 20.8628 -0.0239702 21.7046 0.00931545C23.8091 0.0935085 25.7284 0.725938 27.3637 2.05736C28.3908 2.89342 29.2004 3.90569 29.8267 5.05505C30.0221 5.41138 30.1933 5.78143 30.3725 6.14563C30.3906 6.18085 30.3947 6.22393 30.4188 6.30616C30.1771 6.10451 29.9717 5.93022 29.7643 5.75991C28.4693 4.70259 27.0193 3.92919 25.3659 3.54934C23.6923 3.16362 22.0207 3.22432 20.3613 3.6492C18.2769 4.18177 16.4442 5.18817 14.7384 6.43933C13.7033 7.19902 12.7446 8.0429 11.8484 8.95138C10.8234 9.99107 9.86877 11.0875 9.08738 12.3191C9.00078 12.4562 8.90008 12.5051 8.72889 12.5051C6.07454 12.4993 3.42019 12.5012 0.765838 12.5012H0.5H0.502014Z" fill="#164194"/>
<path d="M15.6182 18.7511C15.9908 19.0467 16.3553 19.3522 16.7379 19.6361C17.9986 20.5661 19.3882 21.2475 20.951 21.5216C21.7063 21.6547 22.4856 21.735 23.2509 21.7155C24.85 21.6743 26.3705 21.2553 27.8246 20.6092C29.5847 19.826 31.1515 18.7648 32.5915 17.5176C34.1905 16.1313 35.6466 14.6197 36.8106 12.8615C36.9778 12.6089 37.147 12.5286 37.4491 12.5306C40.0208 12.5443 42.5926 12.5384 45.1644 12.5384C45.253 12.5384 45.3396 12.5384 45.4887 12.5384C45.2047 12.9261 44.959 13.2746 44.6972 13.6133C43.809 14.7607 42.798 15.8004 41.7347 16.7931C40.0329 18.383 38.2144 19.8358 36.2427 21.1006C34.4886 22.2265 32.6439 23.1918 30.6722 23.9084C29.2484 24.4253 27.7923 24.8326 26.2698 24.9343C25.434 24.9911 24.5882 25.0322 23.7564 24.9637C21.8372 24.8051 20.1052 24.1472 18.6209 22.9294C17.5898 22.0835 16.7883 21.0615 16.1599 19.9063C15.9585 19.5382 15.7753 19.1603 15.5859 18.7863C15.598 18.7746 15.6121 18.7628 15.6242 18.7511H15.6182Z" fill="#164194"/>
<path d="M28.4531 14.601C28.3887 14.7517 28.3444 14.8653 28.292 14.975C27.5267 16.5864 26.3305 17.7475 24.526 18.1782C21.2292 18.9653 18.2224 17.2071 17.3705 14.0821C16.4018 10.5264 18.7339 7.47982 21.8072 6.82192C23.5976 6.43817 25.2208 6.87871 26.6426 7.98889C27.7805 8.87782 28.5398 10.0095 28.7532 11.431C28.8378 11.9929 28.8297 12.5686 28.864 13.1384C28.874 13.2989 28.7754 13.3283 28.6364 13.3283C28.0242 13.3244 27.414 13.3283 26.8017 13.3283C24.5723 13.3283 22.3429 13.3283 20.1155 13.3283C19.7993 13.3283 19.7792 13.3518 19.8416 13.6494C20.1316 15.0337 21.2413 15.9187 22.7034 15.9677C23.5754 15.997 24.3789 15.8345 25.0597 15.2765C25.251 15.1199 25.4021 14.9162 25.5772 14.74C25.6356 14.6832 25.7142 14.6088 25.7847 14.6069C26.6567 14.5971 27.5267 14.601 28.4471 14.601H28.4531ZM26.0828 11.3312C26.0525 11.2235 26.0384 11.155 26.0143 11.0884C25.5732 9.90773 24.7314 9.21657 23.4304 9.04621C21.9361 8.8504 20.4921 9.66688 19.9906 11.0336C19.8799 11.3371 19.8859 11.3488 20.2162 11.3488C22.071 11.3488 23.9278 11.3488 25.7827 11.3488C25.8693 11.3488 25.9579 11.339 26.0828 11.3331V11.3312Z" fill="#EC6608"/>
</g>
<defs>
<clipPath id="clip0_940_5708">
<rect width="45" height="25" fill="white" transform="translate(0.5)"/>
</clipPath>
</defs>
</svg>
